<svg width="162" height="972" viewBox="0 0 162 972" fill="none" xmlns="http://www.w3.org/2000/svg">
<path d="M-0.000488281 972.003L-0.000495363 810.002L162 810.002L-0.000488281 972.003Z" fill="#022A95"/>
<path d="M-0.000488281 -0.000244141L-0.0004812 162L162 162L-0.000488281 -0.000244141Z" fill="#022A95"/>
<path d="M-0.000495362 648.002C-0.000318228 737.472 72.5301 810.002 162 810.002L-0.000488281 810.002L-0.000495362 648.002ZM162 648.002L162 719.605C122.455 719.605 90.3971 687.547 90.397 648.002L162 648.002Z" fill="#B3C2EB"/>
<mask id="mask0_1974_812" style="mask-type:alpha" maskUnits="userSpaceOnUse" x="-1" y="486" width="163" height="163">
<rect x="-0.000488281" y="648.002" width="162.001" height="162.001" transform="rotate(-90 -0.000488281 648.002)" fill="#0246FE"/>
</mask>
<g mask="url(#mask0_1974_812)">
<path d="M162 486.002C251.47 486.002 324.001 558.532 324.001 648.002C324.001 737.473 251.47 810.003 162 810.003C72.5296 810.003 -0.000491452 737.473 -0.000495363 648.002C-0.000499273 558.532 72.5296 486.002 162 486.002ZM162 719.605C201.545 719.605 233.603 687.547 233.603 648.002C233.603 608.457 201.545 576.399 162 576.399C122.455 576.399 90.3971 608.457 90.3971 648.002C90.3971 687.547 122.455 719.605 162 719.605Z" fill="#0246FE"/>
</g>
<path d="M0.00145776 324.001C0.0470357 334.519 2.13965 344.928 6.16552 354.648C10.2362 364.475 16.2026 373.405 23.7241 380.926C31.2456 388.447 40.1751 394.414 50.0024 398.485C59.8297 402.555 70.3625 404.651 80.9995 404.651C91.6366 404.651 102.17 402.555 111.998 398.485C121.825 394.414 130.754 388.447 138.276 380.926C145.797 373.404 151.764 364.475 155.834 354.648C159.86 344.928 161.951 334.519 161.997 324.001L162 324.001L162 486.001L-0.000488281 486.001L-0.000495362 324.001L0.00145776 324.001Z" fill="#94B1FF"/>
<path d="M162 162.001L162 324.001L161.998 324.001C161.958 313.467 159.866 303.041 155.834 293.307C151.764 283.48 145.797 274.551 138.276 267.029C130.754 259.508 121.825 253.541 111.998 249.47C102.17 245.4 91.6366 243.304 80.9995 243.304C70.3625 243.304 59.8297 245.4 50.0024 249.47C40.1751 253.541 31.2457 259.508 23.7241 267.029C16.2026 274.551 10.2362 283.48 6.16553 293.307C2.13367 303.041 0.0400235 313.467 0.000488281 324.001L-0.000488281 324.001L-0.000495362 162.001L162 162.001Z" fill="#0045FF"/>
</svg>
