<svg width="193" height="64" viewBox="0 0 193 64" fill="none" xmlns="http://www.w3.org/2000/svg">
<path d="M19.0874 9.96625C21.5133 9.96625 23.6038 10.3792 25.3587 11.205C27.1394 12.0309 28.4943 13.2051 29.4234 14.7278C30.3525 16.2246 30.817 17.9796 30.817 19.9926C30.817 21.9798 30.3525 23.7347 29.4234 25.2574C28.4943 26.7542 27.1394 27.9156 25.3587 28.7414C23.6038 29.5673 21.5133 29.9802 19.0874 29.9802H6.50611V23.554H18.5842C19.8745 23.554 20.881 23.2443 21.6037 22.625C22.3263 21.9798 22.6876 21.1023 22.6876 19.9926C22.6876 18.857 22.3263 17.9796 21.6037 17.3602C20.881 16.715 19.8745 16.3924 18.5842 16.3924H7.20292L10.8031 12.6761V39H2.78979V9.96625H19.0874ZM59.0194 21.5797V27.3865H37.7667V21.5797H59.0194ZM43.225 24.4831L41.3282 36.1353L38.0764 32.4964H60.2969V39H33.3148L35.5214 24.4831L33.3148 9.96625H60.1033V16.4698H38.0764L41.3282 12.8309L43.225 24.4831ZM107.368 9.96625V39H99.742V12.8309L101.445 13.0245L90.2189 39H82.0894L70.8243 13.1019L72.5664 12.9083V39H64.9402V9.96625H77.3279L87.7413 34.8966H84.6444L94.9804 9.96625H107.368ZM112.8 9.96625H120.814V39H112.8V9.96625ZM131.757 22.6637H142.325C143.615 22.6637 144.622 22.3669 145.345 21.7733C146.067 21.1797 146.429 20.3539 146.429 19.2958C146.429 18.2118 146.067 17.386 145.345 16.8182C144.622 16.2246 143.615 15.9278 142.325 15.9278H130.634L134.234 12.0954V39H126.221V9.96625H143.448C145.667 9.96625 147.603 10.3663 149.254 11.1663C150.906 11.9405 152.197 13.0245 153.126 14.4181C154.055 15.7859 154.519 17.4118 154.519 19.2958C154.519 21.1281 154.055 22.7411 153.126 24.1347C152.197 25.5283 150.906 26.6123 149.254 27.3865C147.603 28.1607 145.667 28.5478 143.448 28.5478H131.757V22.6637ZM136.093 25.4122H145.112L155.526 39H146.235L136.093 25.4122ZM164.233 33.4255V26.9607H184.247V33.4255H164.233ZM179.679 9.96625L192.88 39H184.325L173.253 13.3729H175.576L164.466 39H155.91L169.111 9.96625H179.679Z" fill="#4342FF"/>
<path d="M0.648635 51.4029C0.720277 50.3521 1.06655 49.4447 1.68745 48.6805C2.30835 47.9043 3.13224 47.3133 4.15912 46.9073C5.19794 46.4894 6.3681 46.2805 7.6696 46.2805C8.91141 46.2805 9.99202 46.4715 10.9114 46.8536C11.8428 47.2237 12.5652 47.7432 13.0786 48.4118C13.5921 49.0805 13.8488 49.8566 13.8488 50.7402C13.8488 51.4208 13.6637 52.0596 13.2935 52.6566C12.9234 53.2417 12.3443 53.8208 11.5562 54.394C10.7681 54.9552 9.7353 55.5462 8.45767 56.1671L4.76808 58.0119L4.6248 57.0627H14.2249V60H0.935205V57.4209L6.70243 54.179C7.59796 53.6656 8.29051 53.2357 8.78006 52.8895C9.28156 52.5313 9.6338 52.2029 9.83679 51.9044C10.0517 51.6059 10.1592 51.2895 10.1592 50.9551C10.1592 50.585 10.0577 50.2686 9.8547 50.0059C9.66366 49.7312 9.37111 49.5163 8.97708 49.3611C8.58305 49.2059 8.09946 49.1282 7.52632 49.1282C6.80989 49.1282 6.22481 49.2357 5.77108 49.4506C5.31734 49.6536 4.97704 49.9283 4.75017 50.2745C4.5233 50.6089 4.38599 50.985 4.33823 51.4029H0.648635ZM23.287 60.2866C21.7586 60.2866 20.4272 60 19.2929 59.4269C18.1586 58.8418 17.2809 58.0239 16.66 56.9731C16.0511 55.9223 15.7466 54.6925 15.7466 53.2835C15.7466 51.8745 16.0511 50.6447 16.66 49.5939C17.2809 48.5432 18.1586 47.7312 19.2929 47.1581C20.4272 46.573 21.7586 46.2805 23.287 46.2805C24.8034 46.2805 26.1228 46.573 27.2452 47.1581C28.3796 47.7312 29.2572 48.5432 29.8781 49.5939C30.499 50.6447 30.8094 51.8745 30.8094 53.2835C30.8094 54.6925 30.499 55.9223 29.8781 56.9731C29.2572 58.0239 28.3796 58.8418 27.2452 59.4269C26.1228 60 24.8034 60.2866 23.287 60.2866ZM23.287 57.2776C24.493 57.2776 25.4303 56.9313 26.099 56.2388C26.7676 55.5343 27.1019 54.5492 27.1019 53.2835C27.1019 52.0059 26.7676 51.0208 26.099 50.3283C25.4303 49.6357 24.493 49.2894 23.287 49.2894C22.081 49.2894 21.1377 49.6357 20.4571 50.3283C19.7765 51.0208 19.4362 52.0059 19.4362 53.2835C19.4362 54.5492 19.7765 55.5343 20.4571 56.2388C21.1377 56.9313 22.081 57.2776 23.287 57.2776ZM32.1672 51.4029C32.2388 50.3521 32.5851 49.4447 33.206 48.6805C33.8269 47.9043 34.6508 47.3133 35.6776 46.9073C36.7165 46.4894 37.8866 46.2805 39.1881 46.2805C40.4299 46.2805 41.5105 46.4715 42.43 46.8536C43.3613 47.2237 44.0837 47.7432 44.5971 48.4118C45.1106 49.0805 45.3673 49.8566 45.3673 50.7402C45.3673 51.4208 45.1822 52.0596 44.8121 52.6566C44.4419 53.2417 43.8628 53.8208 43.0747 54.394C42.2867 54.9552 41.2538 55.5462 39.9762 56.1671L36.2866 58.0119L36.1433 57.0627H45.7434V60H32.4537V57.4209L38.221 54.179C39.1165 53.6656 39.809 53.2357 40.2986 52.8895C40.8001 52.5313 41.1523 52.2029 41.3553 51.9044C41.5702 51.6059 41.6777 51.2895 41.6777 50.9551C41.6777 50.585 41.5762 50.2686 41.3732 50.0059C41.1822 49.7312 40.8896 49.5163 40.4956 49.3611C40.1016 49.2059 39.618 49.1282 39.0448 49.1282C38.3284 49.1282 37.7433 49.2357 37.2896 49.4506C36.8359 49.6536 36.4956 49.9283 36.2687 50.2745C36.0418 50.6089 35.9045 50.985 35.8568 51.4029H32.1672ZM48.7338 46.567H59.2473V49.3253H49.8263L51.3129 48.6805L50.5607 53.4984L49.6472 53.5163C49.9099 53.0626 50.2681 52.6507 50.7219 52.2805C51.1756 51.9104 51.7368 51.6178 52.4055 51.4029C53.0741 51.176 53.8503 51.0626 54.7339 51.0626C55.8801 51.0626 56.8652 51.2536 57.6891 51.6357C58.5249 52.0059 59.1697 52.5253 59.6235 53.194C60.0772 53.8507 60.3041 54.6149 60.3041 55.4865C60.3041 56.4179 60.0414 57.2477 59.516 57.9761C59.0026 58.6925 58.2563 59.2597 57.2772 59.6776C56.31 60.0836 55.1398 60.2866 53.7667 60.2866C52.4413 60.2866 51.2831 60.0955 50.292 59.7134C49.3129 59.3194 48.5428 58.794 47.9816 58.1373C47.4323 57.4686 47.1159 56.7224 47.0323 55.8985H50.7219C50.8413 56.3641 51.1637 56.7403 51.6891 57.0268C52.2144 57.3015 52.907 57.4388 53.7667 57.4388C54.3637 57.4388 54.8712 57.3612 55.2891 57.2059C55.707 57.0388 56.0294 56.8119 56.2563 56.5253C56.4831 56.2268 56.5966 55.8746 56.5966 55.4686C56.5966 55.0865 56.4951 54.7462 56.2921 54.4477C56.0891 54.1492 55.7846 53.9223 55.3786 53.7671C54.9727 53.5999 54.4712 53.5163 53.8742 53.5163C53.3727 53.5163 52.9249 53.5701 52.5309 53.6775C52.1368 53.785 51.7905 53.9223 51.492 54.0895C51.2055 54.2567 50.9607 54.4358 50.7577 54.6268H47.5517L48.7338 46.567Z" fill="#1F1E4B"/>
</svg>
