<svg width="61" height="363" viewBox="0 0 61 363" fill="none" xmlns="http://www.w3.org/2000/svg">
<path d="M0.00146484 363.001L0.0014622 302.499L60.504 302.499L0.00146484 363.001Z" fill="#5756FF"/>
<path d="M0 6.10352e-05L2.64465e-06 60.5026L60.5026 60.5026L0 6.10352e-05Z" fill="#5756FF"/>
<path d="M-2.64467e-06 242.01C-1.18406e-06 275.425 27.0883 302.513 60.5029 302.513L0 302.513L-2.64467e-06 242.01ZM60.5029 242.01L60.5029 268.752C45.7339 268.752 33.7607 256.779 33.7607 242.01L60.5029 242.01Z" fill="#C2C2FF"/>
<mask id="mask0_2016_158" style="mask-type:alpha" maskUnits="userSpaceOnUse" x="0" y="181" width="61" height="62">
<rect y="242.01" width="60.5026" height="60.5026" transform="rotate(-90 0 242.01)" fill="#0246FE"/>
</mask>
<g mask="url(#mask0_2016_158)">
<path d="M60.5026 181.508C93.9172 181.508 121.005 208.596 121.005 242.011C121.005 275.425 93.9173 302.513 60.5026 302.513C27.0879 302.513 -1.18405e-06 275.425 -2.64465e-06 242.011C-4.10525e-06 208.596 27.0879 181.508 60.5026 181.508ZM60.5026 268.752C75.2716 268.752 87.2443 256.78 87.2443 242.011C87.2443 227.242 75.2716 215.269 60.5026 215.269C45.7336 215.269 33.7609 227.242 33.7609 242.011C33.7609 256.78 45.7336 268.752 60.5026 268.752Z" fill="#9898FF"/>
</g>
<path d="M0.000973918 121.005C0.0179476 124.933 0.799142 128.821 2.30273 132.451C3.82295 136.121 6.05145 139.456 8.86035 142.265C11.6694 145.074 15.0046 147.303 18.6748 148.823C22.3449 150.343 26.2785 151.126 30.251 151.126C34.2236 151.126 38.1579 150.343 41.8281 148.823C45.4984 147.303 48.8335 145.074 51.6426 142.265C54.4514 139.456 56.68 136.121 58.2002 132.451C59.7038 128.821 60.484 124.933 60.501 121.005L60.5029 121.005L60.5029 181.508L0 181.508L-2.64467e-06 121.005L0.000973918 121.005Z" fill="#BCBCF0"/>
<path d="M60.5029 60.5023L60.5029 121.005L60.5 121.005C60.4852 117.071 59.705 113.178 58.1992 109.542C56.679 105.872 54.4507 102.537 51.6416 99.7278C48.8326 96.9189 45.4982 94.6905 41.8281 93.1702C38.1579 91.65 34.2236 90.8675 30.251 90.8675C26.2785 90.8675 22.3449 91.65 18.6748 93.1702C15.0046 94.6905 11.6694 96.9187 8.86035 99.7278C6.05126 102.537 3.823 105.872 2.30273 109.542C0.797005 113.178 0.0157437 117.071 0.000976562 121.005L0 121.005L-2.64467e-06 60.5023L60.5029 60.5023Z" fill="#7070FF"/>
</svg>
