<svg width="61" height="363" viewBox="0 0 61 363" fill="none" xmlns="http://www.w3.org/2000/svg">
<path d="M60.5122 0L60.5122 60.5026L0.00961802 60.5026L60.5122 0Z" fill="#5756FF"/>
<path d="M60.5137 363.001L60.5137 302.499L0.0110882 302.499L60.5137 363.001Z" fill="#5756FF"/>
<path d="M60.5137 120.991C60.5137 87.5768 33.4253 60.4886 0.0107422 60.4886L60.5137 60.4886L60.5137 120.991ZM0.0107395 120.991L0.0107407 94.2493C14.7797 94.2493 26.7529 106.222 26.7529 120.991L0.0107395 120.991Z" fill="#C2C2FF"/>
<mask id="mask0_2016_142" style="mask-type:alpha" maskUnits="userSpaceOnUse" x="0" y="120" width="61" height="62">
<rect x="60.5137" y="120.991" width="60.5026" height="60.5026" transform="rotate(90 60.5137 120.991)" fill="#0246FE"/>
</mask>
<g mask="url(#mask0_2016_142)">
<path d="M0.0110764 181.493C-33.4036 181.493 -60.4915 154.406 -60.4915 120.991C-60.4915 87.5762 -33.4036 60.4883 0.0110817 60.4883C33.4257 60.4883 60.5137 87.5762 60.5137 120.991C60.5137 154.406 33.4257 181.493 0.0110764 181.493ZM0.0110802 94.2492C-14.7579 94.2492 -26.7306 106.222 -26.7306 120.991C-26.7306 135.76 -14.7579 147.733 0.0110779 147.733C14.7801 147.733 26.7527 135.76 26.7527 120.991C26.7527 106.222 14.7801 94.2492 0.0110802 94.2492Z" fill="#9898FF"/>
</g>
<path d="M60.5127 241.997C60.4957 238.068 59.7145 234.18 58.2109 230.55C56.6907 226.88 54.4622 223.546 51.6533 220.737C48.8442 217.928 45.5091 215.699 41.8389 214.178C38.1688 212.658 34.2351 211.876 30.2627 211.876C26.29 211.876 22.3558 212.658 18.6855 214.178C15.0153 215.699 11.6802 217.928 8.87109 220.737C6.06225 223.546 3.83366 226.88 2.31347 230.55C0.809885 234.18 0.0296682 238.068 0.0126927 241.997L0.0107395 241.997L0.0107422 181.494L60.5137 181.494L60.5137 241.997L60.5127 241.997Z" fill="#BCBCF0"/>
<path d="M0.0107395 302.499L0.0107422 241.996L0.0136719 241.996C0.0284384 245.93 0.808685 249.824 2.31445 253.459C3.83472 257.129 6.06298 260.465 8.87207 263.274C11.681 266.083 15.0155 268.311 18.6855 269.831C22.3558 271.352 26.29 272.134 30.2627 272.134C34.2352 272.134 38.1687 271.351 41.8389 269.831C45.5091 268.311 48.8442 266.083 51.6533 263.274C54.4624 260.465 56.6907 257.129 58.2109 253.459C59.7167 249.824 60.4979 245.93 60.5127 241.996L60.5137 241.996L60.5137 302.499L0.0107395 302.499Z" fill="#7070FF"/>
</svg>
