<svg width="162" height="972" viewBox="0 0 162 972" fill="none" xmlns="http://www.w3.org/2000/svg">
<path d="M162.002 0.000244141L162.002 162.001L0.00119836 162.001L162.002 0.000244141Z" fill="#022A95"/>
<path d="M162.002 972.003L162.002 810.003L0.00121253 810.003L162.002 972.003Z" fill="#022A95"/>
<path d="M162.002 324.001C162.002 234.531 89.4711 162.001 0.000732422 162.001L162.002 162.001L162.002 324.001ZM0.000725341 324.001L0.00072847 252.398C39.5459 252.398 71.6041 284.456 71.6042 324.001L0.000725341 324.001Z" fill="#B3C2EB"/>
<mask id="mask0_2013_10" style="mask-type:alpha" maskUnits="userSpaceOnUse" x="0" y="324" width="163" height="163">
<rect x="162.002" y="324.001" width="162.001" height="162.001" transform="rotate(90 162.002 324.001)" fill="#0246FE"/>
</mask>
<g mask="url(#mask0_2013_10)">
<path d="M0.00142016 486.001C-89.469 486.001 -161.999 413.471 -161.999 324.001C-161.999 234.53 -89.469 162 0.00143433 162C89.4718 162 162.002 234.53 162.002 324.001C162.002 413.471 89.4718 486.001 0.00142016 486.001ZM0.00143037 252.398C-39.5438 252.398 -71.6015 284.455 -71.6015 324.001C-71.6015 363.546 -39.5438 395.604 0.00142412 395.604C39.5466 395.604 71.6044 363.546 71.6044 324.001C71.6044 284.455 39.5466 252.398 0.00143037 252.398Z" fill="#0246FE"/>
</g>
<path d="M162 648.002C161.954 637.484 159.862 627.075 155.836 617.355C151.765 607.528 145.799 598.598 138.277 591.077C130.756 583.555 121.826 577.589 111.999 573.518C102.171 569.448 91.6387 567.352 81.0017 567.352C70.3646 567.352 59.8311 569.448 50.0037 573.518C40.1763 577.589 31.2469 583.555 23.7253 591.077C16.2038 598.598 10.2374 607.528 6.16674 617.355C2.14088 627.075 0.0492335 637.484 0.00365503 648.002L0.000725341 648.002L0.000732422 486.002L162.002 486.002L162.002 648.002L162 648.002Z" fill="#94B1FF"/>
<path d="M0.000725341 810.002L0.000732422 648.002L0.00268555 648.002C0.0422206 658.536 2.13489 668.962 6.16675 678.696C10.2374 688.523 16.2038 697.452 23.7253 704.974C31.2469 712.495 40.1763 718.462 50.0037 722.532C59.8311 726.603 70.3646 728.698 81.0017 728.698C91.6387 728.698 102.171 726.603 111.999 722.532C121.826 718.462 130.756 712.495 138.277 704.974C145.799 697.452 151.765 688.523 155.836 678.696C159.868 668.962 161.961 658.536 162.001 648.002L162.002 648.002L162.002 810.002L0.000725341 810.002Z" fill="#0045FF"/>
</svg>
