<svg width="100" height="100" viewBox="0 0 100 100" fill="none" xmlns="http://www.w3.org/2000/svg">
<rect width="100" height="100" rx="4" fill="white"/>
<path d="M31.5037 60.5291C31.5493 59.8605 31.7696 59.283 32.1647 58.7967C32.5599 58.3028 33.0842 57.9266 33.7376 57.6683C34.3987 57.4024 35.1433 57.2694 35.9716 57.2694C36.7618 57.2694 37.4495 57.391 38.0345 57.6341C38.6272 57.8697 39.0869 58.2002 39.4137 58.6257C39.7404 59.0512 39.9038 59.5451 39.9038 60.1074C39.9038 60.5405 39.786 60.947 39.5504 61.327C39.3149 61.6993 38.9464 62.0678 38.4449 62.4325C37.9434 62.7897 37.2861 63.1658 36.4731 63.5609L34.1251 64.7349L34.034 64.1308H40.1431V66H31.686V64.3587L35.3561 62.2958C35.926 61.969 36.3667 61.6955 36.6782 61.4751C36.9974 61.2472 37.2215 61.0382 37.3507 60.8482C37.4875 60.6583 37.5558 60.4569 37.5558 60.2442C37.5558 60.0086 37.4913 59.8073 37.3621 59.6401C37.2405 59.4653 37.0543 59.3286 36.8036 59.2298C36.5528 59.131 36.2451 59.0816 35.8804 59.0816C35.4245 59.0816 35.0522 59.15 34.7634 59.2868C34.4747 59.4159 34.2581 59.5907 34.1137 59.8111C33.9694 60.0238 33.882 60.2632 33.8516 60.5291H31.5037ZM45.9099 66.1824C44.9373 66.1824 44.0901 66 43.3682 65.6353C42.6464 65.263 42.0879 64.7425 41.6928 64.0738C41.3052 63.4051 41.1115 62.6225 41.1115 61.7259C41.1115 60.8293 41.3052 60.0466 41.6928 59.3779C42.0879 58.7093 42.6464 58.1926 43.3682 57.8279C44.0901 57.4555 44.9373 57.2694 45.9099 57.2694C46.8749 57.2694 47.7145 57.4555 48.4288 57.8279C49.1506 58.1926 49.7091 58.7093 50.1042 59.3779C50.4994 60.0466 50.6969 60.8293 50.6969 61.7259C50.6969 62.6225 50.4994 63.4051 50.1042 64.0738C49.7091 64.7425 49.1506 65.263 48.4288 65.6353C47.7145 66 46.8749 66.1824 45.9099 66.1824ZM45.9099 64.2676C46.6773 64.2676 47.2738 64.0472 47.6993 63.6065C48.1248 63.1582 48.3376 62.5313 48.3376 61.7259C48.3376 60.9128 48.1248 60.286 47.6993 59.8453C47.2738 59.4045 46.6773 59.1842 45.9099 59.1842C45.1425 59.1842 44.5422 59.4045 44.1091 59.8453C43.676 60.286 43.4594 60.9128 43.4594 61.7259C43.4594 62.5313 43.676 63.1582 44.1091 63.6065C44.5422 64.0472 45.1425 64.2676 45.9099 64.2676ZM51.5609 60.5291C51.6065 59.8605 51.8269 59.283 52.222 58.7967C52.6171 58.3028 53.1414 57.9266 53.7949 57.6683C54.4559 57.4024 55.2006 57.2694 56.0288 57.2694C56.819 57.2694 57.5067 57.391 58.0918 57.6341C58.6845 57.8697 59.1442 58.2002 59.4709 58.6257C59.7976 59.0512 59.961 59.5451 59.961 60.1074C59.961 60.5405 59.8432 60.947 59.6077 61.327C59.3721 61.6993 59.0036 62.0678 58.5021 62.4325C58.0006 62.7897 57.3433 63.1658 56.5303 63.5609L54.1824 64.7349L54.0912 64.1308H60.2004V66H51.7433V64.3587L55.4133 62.2958C55.9832 61.969 56.4239 61.6955 56.7355 61.4751C57.0546 61.2472 57.2788 61.0382 57.4079 60.8482C57.5447 60.6583 57.6131 60.4569 57.6131 60.2442C57.6131 60.0086 57.5485 59.8073 57.4193 59.6401C57.2978 59.4653 57.1116 59.3286 56.8608 59.2298C56.6101 59.131 56.3024 59.0816 55.9376 59.0816C55.4817 59.0816 55.1094 59.15 54.8207 59.2868C54.5319 59.4159 54.3154 59.5907 54.171 59.8111C54.0266 60.0238 53.9392 60.2632 53.9088 60.5291H51.5609ZM62.1033 57.4517H68.7938V59.207H62.7986L63.7446 58.7967L63.2659 61.8626L62.6846 61.874C62.8518 61.5853 63.0797 61.3232 63.3685 61.0876C63.6572 60.852 64.0143 60.6659 64.4399 60.5291C64.8654 60.3847 65.3593 60.3126 65.9215 60.3126C66.651 60.3126 67.2779 60.4341 67.8022 60.6773C68.3341 60.9128 68.7444 61.2434 69.0331 61.6689C69.3219 62.0868 69.4662 62.5731 69.4662 63.1278C69.4662 63.7205 69.2991 64.2486 68.9647 64.7121C68.638 65.168 68.1631 65.5289 67.54 65.7948C66.9245 66.0532 66.1799 66.1824 65.3061 66.1824C64.4626 66.1824 63.7256 66.0608 63.0949 65.8176C62.4719 65.5669 61.9818 65.2326 61.6246 64.8146C61.2751 64.3891 61.0737 63.9142 61.0205 63.3899H63.3685C63.4445 63.6863 63.6496 63.9256 63.9839 64.108C64.3183 64.2827 64.759 64.3701 65.3061 64.3701C65.686 64.3701 66.0089 64.3207 66.2749 64.222C66.5408 64.1156 66.746 63.9712 66.8904 63.7889C67.0347 63.5989 67.1069 63.3747 67.1069 63.1164C67.1069 62.8732 67.0423 62.6567 66.9131 62.4667C66.784 62.2768 66.5902 62.1324 66.3319 62.0336C66.0735 61.9272 65.7544 61.874 65.3745 61.874C65.0553 61.874 64.7704 61.9082 64.5196 61.9766C64.2689 62.045 64.0485 62.1324 63.8586 62.2388C63.6762 62.3451 63.5204 62.4591 63.3913 62.5807H61.3511L62.1033 57.4517Z" fill="#1F1E4B"/>
<path d="M13.1976 37.0096C14.3665 37.0096 15.3738 37.2086 16.2195 37.6066C17.0775 38.0045 17.7304 38.5703 18.1781 39.3041C18.6258 40.0253 18.8497 40.871 18.8497 41.841C18.8497 42.7985 18.6258 43.6442 18.1781 44.3779C17.7304 45.0992 17.0775 45.6588 16.2195 46.0567C15.3738 46.4547 14.3665 46.6537 13.1976 46.6537H7.13506V43.5571H12.9551C13.5768 43.5571 14.0618 43.4079 14.4101 43.1094C14.7583 42.7985 14.9324 42.3757 14.9324 41.841C14.9324 41.2938 14.7583 40.871 14.4101 40.5725C14.0618 40.2616 13.5768 40.1062 12.9551 40.1062H7.47083L9.20564 38.3154V51H5.3443V37.0096H13.1976ZM32.4394 42.6058V45.4039H22.1985V42.6058H32.4394ZM24.8286 44.0048L23.9146 49.6196L22.3477 47.8662H33.055V51H20.0533L21.1165 44.0048L20.0533 37.0096H32.9617V40.1435H22.3477L23.9146 38.39L24.8286 44.0048ZM55.737 37.0096V51H52.0622V38.39L52.883 38.4833L47.4733 51H43.556L38.1278 38.5206L38.9672 38.4273V51H35.2924V37.0096H41.2616L46.2795 49.0227H44.7872L49.7678 37.0096H55.737ZM58.3546 37.0096H62.216V51H58.3546V37.0096ZM67.489 43.1281H72.5815C73.2033 43.1281 73.6883 42.9851 74.0365 42.6991C74.3847 42.413 74.5588 42.0151 74.5588 41.5052C74.5588 40.9829 74.3847 40.585 74.0365 40.3114C73.6883 40.0253 73.2033 39.8823 72.5815 39.8823H66.9481L68.6829 38.0356V51H64.8215V37.0096H73.1225C74.192 37.0096 75.1247 37.2024 75.9206 37.5879C76.7165 37.961 77.3382 38.4833 77.7859 39.1548C78.2336 39.8139 78.4575 40.5974 78.4575 41.5052C78.4575 42.3882 78.2336 43.1654 77.7859 43.8369C77.3382 44.5085 76.7165 45.0308 75.9206 45.4039C75.1247 45.7769 74.192 45.9635 73.1225 45.9635H67.489V43.1281ZM69.5783 44.4525H73.9246L78.9425 51H74.4656L69.5783 44.4525ZM83.1384 48.3139V45.1987H92.7824V48.3139H83.1384ZM90.5813 37.0096L96.9422 51H92.8197L87.4848 38.6512H88.604L83.2503 51H79.1278L85.4888 37.0096H90.5813Z" fill="#4342FF"/>
<path d="M72.7429 52.3832L74.5744 55.2931L77.542 53.5568L75.9378 56.5978L78.9252 58.2997L75.4895 58.4309L75.5094 61.8691L73.6779 58.9592L70.7103 60.6955L72.3145 57.6545L69.327 55.9526L72.7628 55.8214L72.7429 52.3832Z" fill="#FF3EE5"/>
</svg>
