<svg width="50" height="50" viewBox="0 0 50 50" fill="none" xmlns="http://www.w3.org/2000/svg">
<rect width="50" height="50" fill="#4342FF"/>
<path d="M16.284 11.5H34.916V15.138H17.746L19.616 13.948L18.188 24.692L16.862 24.726C17.3833 23.9327 18.086 23.1847 18.97 22.482C19.8767 21.7793 20.9647 21.2127 22.234 20.782C23.526 20.3287 24.9767 20.102 26.586 20.102C28.8073 20.102 30.6887 20.4873 32.23 21.258C33.7713 22.006 34.9387 23.026 35.732 24.318C36.548 25.61 36.956 27.072 36.956 28.704C36.956 30.404 36.48 31.9113 35.528 33.226C34.576 34.5407 33.2273 35.5833 31.482 36.354C29.7593 37.102 27.708 37.476 25.328 37.476C22.948 37.476 20.8853 37.1247 19.14 36.422C17.3947 35.7193 16.012 34.7673 14.992 33.566C13.9947 32.342 13.3827 30.982 13.156 29.486H17.678C17.9953 30.8233 18.8113 31.8773 20.126 32.648C21.4407 33.4187 23.1747 33.804 25.328 33.804C26.7787 33.804 28.0253 33.6 29.068 33.192C30.1333 32.7613 30.9607 32.172 31.55 31.424C32.1393 30.6533 32.434 29.7467 32.434 28.704C32.434 27.684 32.1847 26.8 31.686 26.052C31.21 25.2813 30.4733 24.692 29.476 24.284C28.5013 23.8533 27.2547 23.638 25.736 23.638C24.4893 23.638 23.3673 23.7853 22.37 24.08C21.3953 24.3747 20.5453 24.7487 19.82 25.202C19.1173 25.6553 18.528 26.1313 18.052 26.63H14.312L16.284 11.5Z" fill="white"/>
</svg>
