<svg width="50" height="50" viewBox="0 0 50 50" fill="none" xmlns="http://www.w3.org/2000/svg">
<rect width="50" height="50" fill="#4342FF"/>
<path d="M12.938 19.354C13.0967 17.79 13.6633 16.3847 14.638 15.138C15.6353 13.8687 17.018 12.8713 18.786 12.146C20.5767 11.398 22.7073 11.024 25.178 11.024C27.3767 11.024 29.2807 11.3187 30.89 11.908C32.522 12.4747 33.78 13.2793 34.664 14.322C35.548 15.342 35.99 16.5547 35.99 17.96C35.99 19.1387 35.6387 20.204 34.936 21.156C34.256 22.0853 33.2133 22.822 31.808 23.366C30.4027 23.91 28.646 24.182 26.538 24.182V23.536C28.6233 23.4453 30.414 23.638 31.91 24.114C33.406 24.5673 34.5507 25.27 35.344 26.222C36.16 27.1513 36.568 28.296 36.568 29.656C36.568 31.1747 36.1033 32.5233 35.174 33.702C34.2447 34.8807 32.896 35.81 31.128 36.49C29.3827 37.1473 27.2407 37.476 24.702 37.476C22.2313 37.476 20.078 37.1247 18.242 36.422C16.406 35.6967 14.9667 34.688 13.924 33.396C12.904 32.104 12.3373 30.5967 12.224 28.874H16.746C16.95 30.4607 17.7207 31.6847 19.058 32.546C20.3953 33.3847 22.2767 33.804 24.702 33.804C27.1273 33.804 28.952 33.4073 30.176 32.614C31.4 31.8207 32.012 30.7327 32.012 29.35C32.012 28.534 31.7967 27.854 31.366 27.31C30.958 26.7433 30.2667 26.3127 29.292 26.018C28.34 25.7233 27.048 25.576 25.416 25.576H20.792V22.244H25.416C27.524 22.244 29.054 21.904 30.006 21.224C30.958 20.5213 31.434 19.626 31.434 18.538C31.434 17.3367 30.9013 16.396 29.836 15.716C28.7933 15.036 27.1613 14.696 24.94 14.696C22.764 14.696 21.03 15.104 19.738 15.92C18.4687 16.7133 17.7093 17.858 17.46 19.354H12.938Z" fill="white"/>
</svg>
