<svg width="50" height="50" viewBox="0 0 50 50" fill="none" xmlns="http://www.w3.org/2000/svg">
<rect width="50" height="50" fill="#4342FF"/>
<path d="M13.428 20.272C13.564 18.3907 14.1647 16.7587 15.23 15.376C16.318 13.9933 17.7573 12.928 19.548 12.18C21.3387 11.4093 23.3787 11.024 25.668 11.024C27.844 11.024 29.748 11.364 31.38 12.044C33.0347 12.724 34.3153 13.676 35.222 14.9C36.1513 16.124 36.616 17.5407 36.616 19.15C36.616 20.3967 36.31 21.5527 35.698 22.618C35.1087 23.6833 34.1227 24.7713 32.74 25.882C31.38 26.97 29.5327 28.2053 27.198 29.588L18.732 34.586L18.154 33.26H37.398V37H13.666V33.736L24.512 27.14C26.416 25.984 27.912 24.9867 29 24.148C30.1107 23.2867 30.904 22.482 31.38 21.734C31.856 20.986 32.094 20.1927 32.094 19.354C32.094 18.47 31.856 17.6767 31.38 16.974C30.904 16.2713 30.1787 15.716 29.204 15.308C28.252 14.9 27.028 14.696 25.532 14.696C23.832 14.696 22.438 14.9453 21.35 15.444C20.262 15.9427 19.446 16.6227 18.902 17.484C18.3807 18.3227 18.0633 19.252 17.95 20.272H13.428Z" fill="white"/>
</svg>
